{
  "asset": {
    "version": "2.0",
    "generator": "THREE.GLTFExporter"
  },
  "scenes": [
    {
      "nodes": [
        3
      ],
      "name": "scene-0"
    }
  ],
  "scene": 0,
  "nodes": [
    {
      "name": "buffer-0-mesh-0_0",
      "mesh": 0
    },
    {
      "name": "buffer-0-mesh-0_1",
      "mesh": 1
    },
    {
      "name": "buffer-0-mesh-0_2",
      "mesh": 2
    },
    {
      "name": "node-0",
      "children": [
        0,
        1,
        2
      ]
    }
  ],
  "bufferViews": [
    {
      "buffer": 0,
      "byteOffset": 0,
      "byteLength": 106104,
      "target": 34962,
      "byteStride": 12
    },
    {
      "buffer": 0,
      "byteOffset": 106104,
      "byteLength": 106104,
      "target": 34962,
      "byteStride": 12
    },
    {
      "buffer": 0,
      "byteOffset": 212208,
      "byteLength": 70736,
      "target": 34962,
      "byteStride": 8
    },
    {
      "buffer": 0,
      "byteOffset": 282944,
      "byteLength": 79236,
      "target": 34963
    },
    {
      "buffer": 0,
      "byteOffset": 362180,
      "byteLength": 16044,
      "target": 34962,
      "byteStride": 12
    },
    {
      "buffer": 0,
      "byteOffset": 378224,
      "byteLength": 16044,
      "target": 34962,
      "byteStride": 12
    },
    {
      "buffer": 0,
      "byteOffset": 394268,
      "byteLength": 10696,
      "target": 34962,
      "byteStride": 8
    },
    {
      "buffer": 0,
      "byteOffset": 404964,
      "byteLength": 11088,
      "target": 34963
    },
    {
      "buffer": 0,
      "byteOffset": 416052,
      "byteLength": 211932,
      "target": 34962,
      "byteStride": 12
    },
    {
      "buffer": 0,
      "byteOffset": 627984,
      "byteLength": 211932,
      "target": 34962,
      "byteStride": 12
    },
    {
      "buffer": 0,
      "byteOffset": 839916,
      "byteLength": 141288,
      "target": 34962,
      "byteStride": 8
    },
    {
      "buffer": 0,
      "byteOffset": 981204,
      "byteLength": 186228,
      "target": 34963
    }
  ],
  "buffers": [
    {
      "byteLength": 1167432,
      "uri": "data:application/octet-stream;base64,"
    }
  ],
  "accessors": [
    {
      "bufferView": 0,
      "componentType": 5126,
      "count": 8842,
      "max": [
        30.347841262817383,
        19.979787826538086,
        1.1770490407943726
      ],
      "min": [
        -3.3529443740844727,
        0,
        -16.301469802856445
      ],
      "type": "VEC3"
    },
    {
      "bufferView": 1,
      "componentType": 5126,
      "count": 8842,
      "max": [
        1,
        1,
        1
      ],
      "min": [
        -1,
        -1,
        -1
      ],
      "type": "VEC3"
    },
    {
      "bufferView": 2,
      "componentType": 5126,
      "count": 8842,
      "max": [
        1,
        0
      ],
      "min": [
        0,
        -1
      ],
      "type": "VEC2"
    },
    {
      "bufferView": 3,
      "componentType": 5123,
      "count": 39618,
      "max": [
        8841
      ],
      "min": [
        0
      ],
      "type": "SCALAR"
    },
    {
      "bufferView": 4,
      "componentType": 5126,
      "count": 1337,
      "max": [
        30.84343910217285,
        19.979787826538086,
        1.1770490407943726
      ],
      "min": [
        -3.848546028137207,
        16.014989852905273,
        -15.425542831420898
      ],
      "type": "VEC3"
    },
    {
      "bufferView": 5,
      "componentType": 5126,
      "count": 1337,
      "max": [
        1,
        1,
        1
      ],
      "min": [
        -1,
        -1,
        -1
      ],
      "type": "VEC3"
    },
    {
      "bufferView": 6,
      "componentType": 5126,
      "count": 1337,
      "max": [
        1.2184765338897705,
        0
      ],
      "min": [
        0,
        -0.7579602003097534
      ],
      "type": "VEC2"
    },
    {
      "bufferView": 7,
      "componentType": 5123,
      "count": 5544,
      "max": [
        1336
      ],
      "min": [
        0
      ],
      "type": "SCALAR"
    },
    {
      "bufferView": 8,
      "componentType": 5126,
      "count": 17661,
      "max": [
        24.488351821899414,
        15.88358211517334,
        -1.5133000612258911
      ],
      "min": [
        1.984202265739441,
        12.927865028381348,
        -13.069758415222168
      ],
      "type": "VEC3"
    },
    {
      "bufferView": 9,
      "componentType": 5126,
      "count": 17661,
      "max": [
        0.9968971014022827,
        0.9913303852081299,
        0.9998780488967896
      ],
      "min": [
        -0.9968971014022827,
        -0.9913303852081299,
        -0.9998780488967896
      ],
      "type": "VEC3"
    },
    {
      "bufferView": 10,
      "componentType": 5126,
      "count": 17661,
      "max": [
        1,
        0
      ],
      "min": [
        0,
        -1
      ],
      "type": "VEC2"
    },
    {
      "bufferView": 11,
      "componentType": 5123,
      "count": 93114,
      "max": [
        17660
      ],
      "min": [
        0
      ],
      "type": "SCALAR"
    }
  ],
  "materials": [
    {
      "pbrMetallicRoughness": {
        "metallicFactor": 0,
        "roughnessFactor": 1
      },
      "doubleSided": true,
      "name": "Noyer"
    },
    {
      "pbrMetallicRoughness": {
        "baseColorFactor": [
          0.8627,
          0.8627,
          0.8627,
          1
        ],
        "metallicFactor": 0,
        "roughnessFactor": 1
      },
      "doubleSided": true,
      "name": "Cuir blanc"
    },
    {
      "pbrMetallicRoughness": {
        "metallicFactor": 0,
        "roughnessFactor": 0.9699476628648295
      },
      "doubleSided": true,
      "name": "__default"
    }
  ],
  "meshes": [
    {
      "primitives": [
        {
          "mode": 4,
          "attributes": {
            "POSITION": 0,
            "NORMAL": 1,
            "TEXCOORD_0": 2
          },
          "indices": 3,
          "material": 0
        }
      ]
    },
    {
      "primitives": [
        {
          "mode": 4,
          "attributes": {
            "POSITION": 4,
            "NORMAL": 5,
            "TEXCOORD_0": 6
          },
          "indices": 7,
          "material": 1
        }
      ]
    },
    {
      "primitives": [
        {
          "mode": 4,
          "attributes": {
            "POSITION": 8,
            "NORMAL": 9,
            "TEXCOORD_0": 10
          },
          "indices": 11,
          "material": 2
        }
      ]
    }
  ]
}