{
  "asset": {
    "version": "2.0",
    "generator": "THREE.GLTFExporter"
  },
  "scenes": [
    {
      "nodes": [
        3,
        5,
        6
      ],
      "name": "defaultScene"
    }
  ],
  "scene": 0,
  "nodes": [
    {
      "name": "node_MeshObject1807015936-PolyPaper12",
      "mesh": 0
    },
    {
      "matrix": [
        1,
        0,
        0,
        0,
        0,
        1,
        0,
        0,
        0,
        0,
        1,
        0,
        0.006870557463426585,
        0.1935305636930341,
        0.1622377668817551,
        1
      ],
      "children": [
        0
      ]
    },
    {
      "matrix": [
        1,
        0,
        0,
        0,
        0,
        1,
        0,
        0,
        0,
        0,
        1,
        0,
        -0.006870557463426585,
        -0.1935305636930341,
        -0.1622377668817551,
        1
      ],
      "extras": {
        "isTransformNode": 1
      },
      "children": [
        1
      ]
    },
    {
      "children": [
        2
      ]
    },
    {
      "matrix": [
        1,
        0,
        0,
        0,
        0,
        1,
        0,
        0,
        0,
        0,
        1,
        0,
        -0.2923610208224541,
        0.146180510411227,
        0.146180510411227,
        1
      ],
      "name": "headLightNode",
      "extras": {
        "isHeadLight": 1,
        "gltfExtensions": {
          "KHR_lights_punctual": {
            "light": 0
          }
        }
      }
    },
    {
      "matrix": [
        -0.8824552516264113,
        2.7755575615628914e-17,
        -0.470396352958831,
        0,
        -0.27210178433351917,
        0.8157163132704668,
        0.510458142482763,
        0,
        0.38370997881145097,
        0.5784521555534543,
        -0.7198331444828585,
        0,
        0.3172169591712971,
        0.1967459622005341,
        -0.6848942668046696,
        1
      ],
      "camera": 0,
      "children": [
        4
      ]
    },
    {
      "matrix": [
        0,
        0,
        0,
        0,
        0,
        0,
        0,
        0,
        -0.12054944581852707,
        0.24109889163705414,
        -0.12054944581852713,
        0,
        -0.3023495921515416,
        0.364967752518112,
        -0.4557004216576221,
        1
      ],
      "name": "keyLightNode",
      "extras": {
        "isKeyLight": 1,
        "gltfExtensions": {
          "KHR_lights_punctual": {
            "light": 1
          }
        }
      }
    }
  ],
  "bufferViews": [
    {
      "buffer": 0,
      "byteOffset": 0,
      "byteLength": 108800,
      "target": 34962,
      "byteStride": 16
    },
    {
      "buffer": 0,
      "byteOffset": 108800,
      "byteLength": 81600,
      "target": 34962,
      "byteStride": 12
    },
    {
      "buffer": 0,
      "byteOffset": 190400,
      "byteLength": 81600,
      "target": 34962,
      "byteStride": 12
    },
    {
      "buffer": 0,
      "byteOffset": 272000,
      "byteLength": 18504,
      "target": 34963
    }
  ],
  "buffers": [
    {
      "byteLength": 290504,
      "uri": "data:application/octet-stream;base64,"
    }
  ],
  "accessors": [
    {
      "bufferView": 0,
      "componentType": 5126,
      "count": 6800,
      "max": [
        1,
        1,
        1,
        1
      ],
      "min": [
        0.006584956776350737,
        0.006584956776350737,
        0,
        1
      ],
      "type": "VEC4"
    },
    {
      "bufferView": 1,
      "componentType": 5126,
      "count": 6800,
      "max": [
        0.9995522499084473,
        0.9997437000274658,
        0.999538242816925
      ],
      "min": [
        -0.9792339205741882,
        -0.9999144673347473,
        -0.9995384216308594
      ],
      "type": "VEC3"
    },
    {
      "bufferView": 2,
      "componentType": 5126,
      "count": 6800,
      "max": [
        0.2530938684940338,
        -0.090491384267807,
        -0.014056357555091381
      ],
      "min": [
        -0.25385522842407227,
        -0.2911771237850189,
        -0.30773046612739563
      ],
      "type": "VEC3"
    },
    {
      "bufferView": 3,
      "componentType": 5123,
      "count": 9252,
      "max": [
        6799
      ],
      "min": [
        0
      ],
      "type": "SCALAR"
    }
  ],
  "materials": [
    {
      "pbrMetallicRoughness": {
        "metallicFactor": 0,
        "roughnessFactor": 0.6
      },
      "name": "BlocksPaper"
    }
  ],
  "meshes": [
    {
      "primitives": [
        {
          "mode": 4,
          "attributes": {
            "COLOR_0": 0,
            "NORMAL": 1,
            "POSITION": 2
          },
          "indices": 3,
          "material": 0
        }
      ]
    }
  ],
  "cameras": [
    {
      "type": "perspective",
      "perspective": {
        "aspectRatio": 1,
        "yfov": 0.7853981633974483,
        "zfar": 2000000,
        "znear": 0.1000000014901161
      }
    }
  ]
}